<?xml version="1.0" encoding="UTF-8"?>
<svg id="Layer_1" data-name="Layer 1" xmlns="http://www.w3.org/2000/svg" version="1.1" viewBox="0 0 248 198">
  <defs>
    <style>
      .cls-1 {
        stroke: #009eff;
        stroke-width: 2px;
      }

      .cls-1, .cls-2, .cls-3 {
        fill: none;
      }

      .cls-4 {
        fill: #1a9ae8;
      }

      .cls-4, .cls-5, .cls-6, .cls-7, .cls-8, .cls-9 {
        stroke-width: 0px;
      }

      .cls-5, .cls-6 {
        fill: #f8f8f8;
      }

      .cls-2, .cls-10, .cls-3 {
        stroke-linecap: round;
      }

      .cls-2, .cls-10, .cls-3, .cls-11 {
        stroke-width: 2.5px;
      }

      .cls-2, .cls-10, .cls-11 {
        stroke: #01a2e9;
      }

      .cls-2, .cls-3 {
        stroke-linejoin: round;
      }

      .cls-10, .cls-6, .cls-11, .cls-9 {
        fill-rule: evenodd;
      }

      .cls-10, .cls-11 {
        fill: #fff;
      }

      .cls-7 {
        fill: #0f68ea;
      }

      .cls-8 {
        fill: #234e9b;
      }

      .cls-3 {
        stroke: #d7ecf4;
      }

      .cls-9 {
        fill: #d7ecf4;
      }
    </style>
  </defs>
  <circle class="cls-5" cx="133" cy="99" r="99"/>
  <path class="cls-6" d="M209.5,140h34c2.5,0,4.5,2,4.5,4.5h0c0,2.5-2,4.5-4.5,4.5h-34c-2.5,0-4.5-2-4.5-4.5h0c0-2.5,2-4.5,4.5-4.5Z"/>
  <path class="cls-6" d="M28.5,37h56c3,0,5.5,2.5,5.5,5.5h0c0,3-2.5,5.5-5.5,5.5H28.5c-3,0-5.5-2.5-5.5-5.5h0c0-3,2.5-5.5,5.5-5.5Z"/>
  <path class="cls-6" d="M6.5,62h54c3.6,0,6.5,2.9,6.5,6.5h0c0,3.6-2.9,6.5-6.5,6.5H6.5c-3.6,0-6.5-2.9-6.5-6.5h0c0-3.6,2.9-6.5,6.5-6.5Z"/>
  <circle class="cls-5" cx="13" cy="41" r="5"/>
  <g>
    <path class="cls-10" d="M157.4,55.8l10,72.8.9,7.3c.3,2.4-1.4,4.5-3.7,4.8l-63,7.7c-2.4.3-4.5-1.4-4.8-3.7l-9.7-78.8c-.1-1.2.7-2.2,1.9-2.4h0s5.2-.6,5.2-.6M98.4,62.4l4.9-.6"/>
    <path class="cls-9" d="M154.1,60l8.9,66.1.8,6.6c.3,2.1-1.2,4.1-3.3,4.3l-55.5,6.9c-2.1.3-4-1.3-4.2-3.4l-8.7-71.5c-.1-1.1.6-2.1,1.7-2.2l7-.9"/>
    <path class="cls-11" d="M160.2,42.2h-49.4c-.8,0-1.4.3-1.9.8-.5.5-.8,1.2-.8,1.9v82c0,.8.3,1.4.8,1.9.5.5,1.2.8,1.9.8h64c.8,0,1.4-.3,1.9-.8.5-.5.8-1.2.8-1.9V59.6c0-.7-.3-1.4-.8-1.9l-14.6-14.6c-.5-.5-1.2-.8-1.9-.8h0Z"/>
    <path class="cls-2" d="M161,42.6v12.7c0,1.8,1.5,3.3,3.3,3.3h8.7"/>
    <path class="cls-3" d="M120,59.1h28M120,72.1h46M120,86.1h46M120,100.1h46M120,114.1h28"/>
  </g>
  <path class="cls-8" d="M59.8,7.8h5c.5,0,.8-.4.8-.8s-.4-.8-.8-.8h-5V1.1c0-.5-.4-.8-.8-.8s-.8.4-.8.8v5h-5c-.5,0-.8.4-.8.8s.4.8.8.8h5v5c0,.5.4.8.8.8s.8-.4.8-.8v-5Z"/>
  <path class="cls-7" d="M200,8c-3.3,0-6,2.7-6,6s2.7,6,6,6,6-2.7,6-6-2.7-6-6-6ZM200,10c2.2,0,4,1.8,4,4s-1.8,4-4,4-4-1.8-4-4,1.8-4,4-4Z"/>
  <path class="cls-4" d="M225.8,161.5h4.5c.4,0,.8-.3.8-.8s-.3-.8-.8-.8h-4.5v-4.5c0-.4-.3-.8-.8-.8s-.8.3-.8.8v4.5h-4.5c-.4,0-.8.3-.8.8s.3.8.8.8h4.5v4.5c0,.4.3.8.8.8s.8-.3.8-.8v-4.5Z"/>
  <path class="cls-1" d="M35,162.5l7-6.5,8,6.5,8-5.5,6.5,5.5"/>
</svg>